<svg width="146" height="26" viewBox="0 0 146 26" fill="none" xmlns="http://www.w3.org/2000/svg">
<path d="M12.0489 2.92705C12.3483 2.00574 13.6517 2.00574 13.9511 2.92705L15.6942 8.29179C15.828 8.70382 16.212 8.98278 16.6452 8.98278H22.2861C23.2548 8.98278 23.6576 10.2224 22.8738 10.7918L18.3103 14.1074C17.9598 14.362 17.8132 14.8134 17.947 15.2254L19.6902 20.5902C19.9895 21.5115 18.935 22.2776 18.1513 21.7082L13.5878 18.3926C13.2373 18.138 12.7627 18.138 12.4122 18.3926L7.84869 21.7082C7.06498 22.2776 6.0105 21.5115 6.30985 20.5902L8.05296 15.2254C8.18683 14.8134 8.04018 14.362 7.68969 14.1074L3.12616 10.7918C2.34245 10.2224 2.74523 8.98278 3.71395 8.98278H9.35477C9.788 8.98278 10.172 8.70382 10.3058 8.2918L12.0489 2.92705Z" fill="#FFA903"/>
<path d="M42.0489 2.92705C42.3483 2.00574 43.6517 2.00574 43.9511 2.92705L45.6942 8.29179C45.828 8.70382 46.212 8.98278 46.6452 8.98278H52.2861C53.2548 8.98278 53.6576 10.2224 52.8738 10.7918L48.3103 14.1074C47.9598 14.362 47.8132 14.8134 47.947 15.2254L49.6902 20.5902C49.9895 21.5115 48.935 22.2776 48.1513 21.7082L43.5878 18.3926C43.2373 18.138 42.7627 18.138 42.4122 18.3926L37.8487 21.7082C37.065 22.2776 36.0105 21.5115 36.3098 20.5902L38.053 15.2254C38.1868 14.8134 38.0402 14.362 37.6897 14.1074L33.1262 10.7918C32.3425 10.2224 32.7452 8.98278 33.7139 8.98278H39.3548C39.788 8.98278 40.172 8.70382 40.3058 8.2918L42.0489 2.92705Z" fill="#FFA903"/>
<path d="M72.0489 2.92705C72.3483 2.00574 73.6517 2.00574 73.9511 2.92705L75.6942 8.29179C75.828 8.70382 76.212 8.98278 76.6452 8.98278H82.2861C83.2548 8.98278 83.6576 10.2224 82.8738 10.7918L78.3103 14.1074C77.9598 14.362 77.8132 14.8134 77.947 15.2254L79.6902 20.5902C79.9895 21.5115 78.935 22.2776 78.1513 21.7082L73.5878 18.3926C73.2373 18.138 72.7627 18.138 72.4122 18.3926L67.8487 21.7082C67.065 22.2776 66.0105 21.5115 66.3098 20.5902L68.053 15.2254C68.1868 14.8134 68.0402 14.362 67.6897 14.1074L63.1262 10.7918C62.3425 10.2224 62.7452 8.98278 63.7139 8.98278H69.3548C69.788 8.98278 70.172 8.70382 70.3058 8.2918L72.0489 2.92705Z" fill="#FFA903"/>
<path d="M102.049 2.92705C102.348 2.00574 103.652 2.00574 103.951 2.92705L105.694 8.29179C105.828 8.70382 106.212 8.98278 106.645 8.98278H112.286C113.255 8.98278 113.658 10.2224 112.874 10.7918L108.31 14.1074C107.96 14.362 107.813 14.8134 107.947 15.2254L109.69 20.5902C109.99 21.5115 108.935 22.2776 108.151 21.7082L103.588 18.3926C103.237 18.138 102.763 18.138 102.412 18.3926L97.8487 21.7082C97.065 22.2776 96.0105 21.5115 96.3098 20.5902L98.053 15.2254C98.1868 14.8134 98.0402 14.362 97.6897 14.1074L93.1262 10.7918C92.3425 10.2224 92.7452 8.98278 93.7139 8.98278H99.3548C99.788 8.98278 100.172 8.70382 100.306 8.2918L102.049 2.92705Z" fill="#FFA903"/>
<path d="M132.524 3.08203C132.674 2.62137 133.326 2.62138 133.476 3.08203L135.219 8.44629C135.42 9.06431 135.996 9.48242 136.646 9.48242H142.286C142.77 9.48249 142.972 10.103 142.58 10.3877L138.017 13.7031C137.491 14.0851 137.271 14.7618 137.472 15.3799L139.215 20.7451C139.364 21.2055 138.837 21.5882 138.445 21.3037L133.882 17.9883C133.356 17.6063 132.644 17.6063 132.118 17.9883L127.555 21.3037C127.163 21.5882 126.636 21.2055 126.785 20.7451L128.528 15.3799C128.729 14.7618 128.509 14.0851 127.983 13.7031L123.42 10.3877C123.028 10.103 123.23 9.48249 123.714 9.48242H129.354C130.004 9.48242 130.58 9.06431 130.781 8.44629L132.524 3.08203Z" stroke="#FFA903"/>
</svg>
